<svg width="200" height="200" xmlns="http://www.w3.org/2000/svg"><circle cx="100" cy="100" r="90" fill="#2196f3"/><path d="M100 60 C130 60, 150 90, 150 130 C150 170, 130 200, 100 200 C70 200, 50 170, 50 130 C50 90, 70 60, 100 60 Z" fill="#64b5f6"/><path d="M90 110 C90 100, 100 90, 110 90 C120 90, 130 100, 130 110 C130 120, 120 130, 110 130 C100 130, 90 120, 90 110 Z" fill="#ffffff" opacity="0.4"/><path d="M70 140 C70 130, 80 120, 90 120 C100 120, 110 130, 110 140 C110 150, 100 160, 90 160 C80 160, 70 150, 70 140 Z" fill="#ffffff" opacity="0.4"/><path d="M110 140 C110 130, 120 120, 130 120 C140 120, 150 130, 150 140 C150 150, 140 160, 130 160 C120 160, 110 150, 110 140 Z" fill="#ffffff" opacity="0.4"/></svg>