<svg width="200" height="200" xmlns="http://www.w3.org/2000/svg"><circle cx="100" cy="100" r="90" fill="#e91e63"/><path d="M100 50 C130 50, 150 80, 150 120 C150 160, 130 190, 100 190 C70 190, 50 160, 50 120 C50 80, 70 50, 100 50 Z" fill="#f06292"/><path d="M80 90 C80 80, 90 70, 100 70 C110 70, 120 80, 120 90 C120 100, 110 110, 100 110 C90 110, 80 100, 80 90 Z" fill="#ffffff" opacity="0.3"/><path d="M80 120 C80 110, 90 100, 100 100 C110 100, 120 110, 120 120 C120 130, 110 140, 100 140 C90 140, 80 130, 80 120 Z" fill="#ffffff" opacity="0.3"/></svg>